# xmcd
#
# Track frame offsets:
#	150
#	13170
#	30270
#	47350
#	58250
#	76650
#	97570
#	120030
#	134530
#	148090
#	164210
#	178330
#
# Disc length: 2601 seconds
#
# Revision: 0
# Processed by: cddbd v1.5.2PL0 Copyright (c) Steve Scherf et al.
# Submitted via: audiograbber 1.83.01
#
DISCID=940a270c
DTITLE=Carole King - Tapestry
DYEAR=1971
DGENRE=R&B
TTITLE0=I Feel the Earth Move
TTITLE1=So Far Away
TTITLE2=It's Too Late
TTITLE3=Home Again
TTITLE4=Beautiful
TTITLE5=Way Over Yonder
TTITLE6=You've Got a Friend
TTITLE7=Where You Lead
TTITLE8=Will You Love Me Tomorrow?
TTITLE9=Smackwater Jack
TTITLE10=Tapestry
TTITLE11=(You Make Me Feel Like) A Natural Woman
EXTD=
EXTT0=
EXTT1=
EXTT2=
EXTT3=
EXTT4=
EXTT5=
EXTT6=
EXTT7=
EXTT8=
EXTT9=
EXTT10=
EXTT11=
PLAYORDER=
